<?xml version="1.0" encoding="UTF-8" standalone="no"?>
<svg xmlns:svg="http://www.w3.org/2000/svg"
     xmlns="http://www.w3.org/2000/svg" version="1.1"
     width="360.0" height="185.0">
    <!-- Created with parliamentarch (https://github.com/Gouvernathor/parliamentarch/) -->
    <text x="180.0" y="175.0"
          style="font-size:36px;font-weight:bold;text-align:center;text-anchor:middle;font-family:sans-serif">243</text>
    <g style="fill:#ff9933; stroke-width:0.47; stroke:#000000"
       id="0-Bharatiya-Janata-Party">
        <title>Bharatiya Janata Party</title>
        <circle cx="10.93" cy="174.17" r="4.43"/>
        <circle cx="22.61" cy="174.17" r="4.43"/>
        <circle cx="34.28" cy="174.17" r="4.43"/>
        <circle cx="45.96" cy="174.17" r="4.43"/>
        <circle cx="57.64" cy="174.17" r="4.43"/>
        <circle cx="69.32" cy="174.17" r="4.43"/>
        <circle cx="81.01" cy="174.17" r="4.43"/>
        <circle cx="92.69" cy="174.17" r="4.43"/>
        <circle cx="11.96" cy="160.53" r="4.43"/>
        <circle cx="23.63" cy="161.15" r="4.43"/>
        <circle cx="35.40" cy="161.09" r="4.43"/>
        <circle cx="47.18" cy="161.01" r="4.43"/>
        <circle cx="59.00" cy="160.91" r="4.43"/>
        <circle cx="70.84" cy="160.80" r="4.43"/>
        <circle cx="14.08" cy="147.02" r="4.43"/>
        <circle cx="82.74" cy="160.66" r="4.43"/>
        <circle cx="25.73" cy="148.27" r="4.43"/>
        <circle cx="94.55" cy="161.15" r="4.43"/>
        <circle cx="37.68" cy="148.16" r="4.43"/>
        <circle cx="49.70" cy="148.03" r="4.43"/>
        <circle cx="61.78" cy="147.89" r="4.43"/>
        <circle cx="17.28" cy="133.73" r="4.43"/>
        <circle cx="28.89" cy="135.60" r="4.43"/>
        <circle cx="73.97" cy="147.72" r="4.43"/>
        <circle cx="41.12" cy="135.49" r="4.43"/>
        <circle cx="86.31" cy="147.51" r="4.43"/>
        <circle cx="53.47" cy="135.37" r="4.43"/>
        <circle cx="21.55" cy="120.74" r="4.43"/>
        <circle cx="98.34" cy="148.56" r="4.43"/>
        <circle cx="33.08" cy="123.24" r="4.43"/>
        <circle cx="65.97" cy="135.24" r="4.43"/>
        <circle cx="45.69" cy="123.18" r="4.43"/>
        <circle cx="78.66" cy="135.11" r="4.43"/>
        <circle cx="58.48" cy="123.14" r="4.43"/>
        <circle cx="26.86" cy="108.13" r="4.43"/>
        <circle cx="38.29" cy="111.27" r="4.43"/>
        <circle cx="91.64" cy="134.98" r="4.43"/>
        <circle cx="71.50" cy="123.13" r="4.43"/>
        <circle cx="51.34" cy="111.34" r="4.43"/>
        <circle cx="103.98" cy="136.68" r="4.43"/>
        <circle cx="33.16" cy="96.00" r="4.43"/>
        <circle cx="44.47" cy="99.77" r="4.43"/>
        <circle cx="64.66" cy="111.46" r="4.43"/>
        <circle cx="84.85" cy="123.16" r="4.43"/>
        <circle cx="58.04" cy="100.04" r="4.43"/>
        <circle cx="78.32" cy="111.68" r="4.43"/>
        <circle cx="40.43" cy="84.41" r="4.43"/>
        <circle cx="98.64" cy="123.30" r="4.43"/>
        <circle cx="51.58" cy="88.82" r="4.43"/>
        <circle cx="71.96" cy="100.45" r="4.43"/>
        <circle cx="92.44" cy="112.05" r="4.43"/>
        <circle cx="111.33" cy="125.78" r="4.43"/>
        <circle cx="65.72" cy="89.40" r="4.43"/>
        <circle cx="48.60" cy="73.45" r="4.43"/>
        <circle cx="59.57" cy="78.50" r="4.43"/>
        <circle cx="86.34" cy="101.04" r="4.43"/>
        <circle cx="80.31" cy="90.20" r="4.43"/>
        <circle cx="107.18" cy="112.69" r="4.43"/>
        <circle cx="74.33" cy="79.49" r="4.43"/>
        <circle cx="57.64" cy="63.19" r="4.43"/>
        <circle cx="101.31" cy="101.95" r="4.43"/>
        <circle cx="68.39" cy="68.88" r="4.43"/>
        <circle cx="95.47" cy="91.34" r="4.43"/>
        <circle cx="120.23" cy="116.10" r="4.43"/>
        <circle cx="89.63" cy="80.83" r="4.43"/>
        <circle cx="67.48" cy="53.68" r="4.43"/>
        <circle cx="83.80" cy="70.40" r="4.43"/>
        <circle cx="77.97" cy="60.02" r="4.43"/>
        <circle cx="117.09" cy="103.34" r="4.43"/>
        <circle cx="111.35" cy="92.99" r="4.43"/>
        <circle cx="105.59" cy="82.69" r="4.43"/>
        <circle cx="78.05" cy="45.01" r="4.43"/>
        <circle cx="99.82" cy="72.42" r="4.43"/>
        <circle cx="94.04" cy="62.19" r="4.43"/>
    </g>
    <g style="fill:#003366; stroke-width:0.47; stroke:#000000"
       id="1-Janata-Dal--United-">
        <title>Janata Dal (United)</title>
        <circle cx="88.26" cy="51.98" r="4.43"/>
        <circle cx="130.48" cy="107.86" r="4.43"/>
        <circle cx="89.28" cy="37.22" r="4.43"/>
        <circle cx="128.18" cy="95.45" r="4.43"/>
        <circle cx="122.40" cy="85.31" r="4.43"/>
        <circle cx="116.60" cy="75.18" r="4.43"/>
        <circle cx="110.80" cy="65.06" r="4.43"/>
        <circle cx="104.99" cy="54.94" r="4.43"/>
        <circle cx="99.17" cy="44.82" r="4.43"/>
        <circle cx="101.11" cy="30.35" r="4.43"/>
        <circle cx="110.65" cy="38.59" r="4.43"/>
        <circle cx="141.84" cy="101.26" r="4.43"/>
        <circle cx="116.54" cy="48.70" r="4.43"/>
        <circle cx="122.44" cy="58.81" r="4.43"/>
        <circle cx="128.36" cy="68.92" r="4.43"/>
        <circle cx="134.29" cy="79.03" r="4.43"/>
        <circle cx="140.26" cy="89.15" r="4.43"/>
        <circle cx="113.46" cy="24.47" r="4.43"/>
        <circle cx="122.59" cy="33.33" r="4.43"/>
        <circle cx="128.60" cy="43.52" r="4.43"/>
        <circle cx="134.64" cy="53.73" r="4.43"/>
        <circle cx="140.72" cy="63.97" r="4.43"/>
        <circle cx="126.23" cy="19.60" r="4.43"/>
        <circle cx="146.86" cy="74.24" r="4.43"/>
        <circle cx="154.07" cy="96.43" r="4.43"/>
        <circle cx="134.94" cy="29.08" r="4.43"/>
        <circle cx="153.08" cy="84.56" r="4.43"/>
        <circle cx="141.08" cy="39.46" r="4.43"/>
        <circle cx="147.28" cy="49.88" r="4.43"/>
        <circle cx="139.37" cy="15.79" r="4.43"/>
        <circle cx="153.55" cy="60.39" r="4.43"/>
        <circle cx="147.59" cy="25.87" r="4.43"/>
        <circle cx="159.92" cy="71.00" r="4.43"/>
        <circle cx="153.88" cy="36.53" r="4.43"/>
        <circle cx="152.76" cy="13.04" r="4.43"/>
        <circle cx="166.89" cy="93.49" r="4.43"/>
        <circle cx="160.24" cy="47.30" r="4.43"/>
        <circle cx="166.41" cy="81.77" r="4.43"/>
        <circle cx="160.46" cy="23.72" r="4.43"/>
        <circle cx="166.70" cy="58.22" r="4.43"/>
        <circle cx="166.89" cy="34.76" r="4.43"/>
        <circle cx="166.34" cy="11.39" r="4.43"/>
        <circle cx="173.27" cy="69.37" r="4.43"/>
    </g>
    <g style="fill:#f5d62a; stroke-width:0.47; stroke:#000000"
       id="2-Hindustani-Awam-Morcha">
        <title>Hindustani Awam Morcha</title>
        <circle cx="173.39" cy="46.00" r="4.43"/>
        <circle cx="173.47" cy="22.64" r="4.43"/>
        <circle cx="180.00" cy="92.50" r="4.43"/>
        <circle cx="180.00" cy="80.83" r="4.43"/>
    </g>
    <g style="fill:#0000ff; stroke-width:0.47; stroke:#000000"
       id="3-Vikassheel-Insaan-Party">
        <title>Vikassheel Insaan Party</title>
        <circle cx="180.00" cy="57.50" r="4.43"/>
        <circle cx="180.00" cy="34.17" r="4.43"/>
        <circle cx="180.00" cy="10.83" r="4.43"/>
        <circle cx="186.53" cy="22.64" r="4.43"/>
    </g>
    <g style="fill:#056d05; stroke-width:0.47; stroke:#000000"
       id="4-Rashtriya-Janata-Dal">
        <title>Rashtriya Janata Dal</title>
        <circle cx="186.61" cy="46.00" r="4.43"/>
        <circle cx="186.73" cy="69.37" r="4.43"/>
        <circle cx="193.66" cy="11.39" r="4.43"/>
        <circle cx="193.11" cy="34.76" r="4.43"/>
        <circle cx="193.30" cy="58.22" r="4.43"/>
        <circle cx="199.54" cy="23.72" r="4.43"/>
        <circle cx="193.59" cy="81.77" r="4.43"/>
        <circle cx="199.76" cy="47.30" r="4.43"/>
        <circle cx="193.11" cy="93.49" r="4.43"/>
        <circle cx="207.24" cy="13.04" r="4.43"/>
        <circle cx="206.12" cy="36.53" r="4.43"/>
        <circle cx="200.08" cy="71.00" r="4.43"/>
        <circle cx="212.41" cy="25.87" r="4.43"/>
        <circle cx="206.45" cy="60.39" r="4.43"/>
        <circle cx="220.63" cy="15.79" r="4.43"/>
        <circle cx="212.72" cy="49.88" r="4.43"/>
        <circle cx="218.92" cy="39.46" r="4.43"/>
        <circle cx="206.92" cy="84.56" r="4.43"/>
        <circle cx="225.06" cy="29.08" r="4.43"/>
        <circle cx="205.93" cy="96.43" r="4.43"/>
        <circle cx="213.14" cy="74.24" r="4.43"/>
        <circle cx="233.77" cy="19.60" r="4.43"/>
        <circle cx="219.28" cy="63.97" r="4.43"/>
        <circle cx="225.36" cy="53.73" r="4.43"/>
        <circle cx="231.40" cy="43.52" r="4.43"/>
        <circle cx="237.41" cy="33.33" r="4.43"/>
        <circle cx="246.54" cy="24.47" r="4.43"/>
        <circle cx="219.74" cy="89.15" r="4.43"/>
        <circle cx="225.71" cy="79.03" r="4.43"/>
        <circle cx="231.64" cy="68.92" r="4.43"/>
        <circle cx="237.56" cy="58.81" r="4.43"/>
        <circle cx="243.46" cy="48.70" r="4.43"/>
        <circle cx="218.16" cy="101.26" r="4.43"/>
        <circle cx="249.35" cy="38.59" r="4.43"/>
        <circle cx="258.89" cy="30.35" r="4.43"/>
        <circle cx="260.83" cy="44.82" r="4.43"/>
        <circle cx="255.01" cy="54.94" r="4.43"/>
        <circle cx="249.20" cy="65.06" r="4.43"/>
        <circle cx="243.40" cy="75.18" r="4.43"/>
        <circle cx="237.60" cy="85.31" r="4.43"/>
        <circle cx="231.82" cy="95.45" r="4.43"/>
        <circle cx="270.72" cy="37.22" r="4.43"/>
        <circle cx="229.52" cy="107.86" r="4.43"/>
        <circle cx="271.74" cy="51.98" r="4.43"/>
        <circle cx="265.96" cy="62.19" r="4.43"/>
        <circle cx="260.18" cy="72.42" r="4.43"/>
        <circle cx="281.95" cy="45.01" r="4.43"/>
        <circle cx="254.41" cy="82.69" r="4.43"/>
        <circle cx="248.65" cy="92.99" r="4.43"/>
        <circle cx="242.91" cy="103.34" r="4.43"/>
        <circle cx="282.03" cy="60.02" r="4.43"/>
        <circle cx="276.20" cy="70.40" r="4.43"/>
        <circle cx="292.52" cy="53.68" r="4.43"/>
        <circle cx="270.37" cy="80.83" r="4.43"/>
        <circle cx="239.77" cy="116.10" r="4.43"/>
        <circle cx="264.53" cy="91.34" r="4.43"/>
        <circle cx="291.61" cy="68.88" r="4.43"/>
        <circle cx="258.69" cy="101.95" r="4.43"/>
        <circle cx="302.36" cy="63.19" r="4.43"/>
        <circle cx="285.67" cy="79.49" r="4.43"/>
        <circle cx="252.82" cy="112.69" r="4.43"/>
        <circle cx="279.69" cy="90.20" r="4.43"/>
        <circle cx="273.66" cy="101.04" r="4.43"/>
        <circle cx="300.43" cy="78.50" r="4.43"/>
        <circle cx="311.40" cy="73.45" r="4.43"/>
        <circle cx="294.28" cy="89.40" r="4.43"/>
        <circle cx="248.67" cy="125.78" r="4.43"/>
        <circle cx="267.56" cy="112.05" r="4.43"/>
        <circle cx="288.04" cy="100.45" r="4.43"/>
        <circle cx="308.42" cy="88.82" r="4.43"/>
        <circle cx="261.36" cy="123.30" r="4.43"/>
        <circle cx="319.57" cy="84.41" r="4.43"/>
        <circle cx="281.68" cy="111.68" r="4.43"/>
        <circle cx="301.96" cy="100.04" r="4.43"/>
        <circle cx="275.15" cy="123.16" r="4.43"/>
    </g>
    <g style="fill:#00bfff; stroke-width:0.47; stroke:#000000"
       id="5-Indian-National-Congress">
        <title>Indian National Congress</title>
        <circle cx="295.34" cy="111.46" r="4.43"/>
        <circle cx="315.53" cy="99.77" r="4.43"/>
        <circle cx="326.84" cy="96.00" r="4.43"/>
        <circle cx="256.02" cy="136.68" r="4.43"/>
        <circle cx="308.66" cy="111.34" r="4.43"/>
        <circle cx="288.50" cy="123.13" r="4.43"/>
        <circle cx="268.36" cy="134.98" r="4.43"/>
        <circle cx="321.71" cy="111.27" r="4.43"/>
        <circle cx="333.14" cy="108.13" r="4.43"/>
        <circle cx="301.52" cy="123.14" r="4.43"/>
        <circle cx="281.34" cy="135.11" r="4.43"/>
        <circle cx="314.31" cy="123.18" r="4.43"/>
        <circle cx="294.03" cy="135.24" r="4.43"/>
        <circle cx="326.92" cy="123.24" r="4.43"/>
        <circle cx="261.66" cy="148.56" r="4.43"/>
        <circle cx="338.45" cy="120.74" r="4.43"/>
        <circle cx="306.53" cy="135.37" r="4.43"/>
        <circle cx="273.69" cy="147.51" r="4.43"/>
        <circle cx="318.88" cy="135.49" r="4.43"/>
    </g>
    <g style="fill:#c41301; stroke-width:0.47; stroke:#000000"
       id="6-Communist-Party-of-India--Marxist-Leninist--Liberation">
        <title>Communist Party of India (Marxist–Leninist) Liberation</title>
        <circle cx="286.03" cy="147.72" r="4.43"/>
        <circle cx="331.11" cy="135.60" r="4.43"/>
        <circle cx="342.72" cy="133.73" r="4.43"/>
        <circle cx="298.22" cy="147.89" r="4.43"/>
        <circle cx="310.30" cy="148.03" r="4.43"/>
        <circle cx="322.32" cy="148.16" r="4.43"/>
        <circle cx="265.45" cy="161.15" r="4.43"/>
        <circle cx="334.27" cy="148.27" r="4.43"/>
        <circle cx="277.26" cy="160.66" r="4.43"/>
        <circle cx="345.92" cy="147.02" r="4.43"/>
        <circle cx="289.16" cy="160.80" r="4.43"/>
        <circle cx="301.00" cy="160.91" r="4.43"/>
    </g>
    <g style="fill:#f50222; stroke-width:0.47; stroke:#000000"
       id="7-Communist-Party-of-India">
        <title>Communist Party of India</title>
        <circle cx="312.82" cy="161.01" r="4.43"/>
        <circle cx="324.60" cy="161.09" r="4.43"/>
    </g>
    <g style="fill:#cc0d0d; stroke-width:0.47; stroke:#000000"
       id="8-Communist-Party-of-India--Marxist-">
        <title>Communist Party of India (Marxist)</title>
        <circle cx="336.37" cy="161.15" r="4.43"/>
        <circle cx="348.04" cy="160.53" r="4.43"/>
    </g>
    <g style="fill:#0c6b4b; stroke-width:0.47; stroke:#000000"
       id="9-All-India-Majlis-e-Ittehadul-Muslimeen">
        <title>All India Majlis-e-Ittehadul Muslimeen</title>
        <circle cx="267.31" cy="174.17" r="4.43"/>
        <circle cx="278.99" cy="174.17" r="4.43"/>
        <circle cx="290.68" cy="174.17" r="4.43"/>
        <circle cx="302.36" cy="174.17" r="4.43"/>
        <circle cx="314.04" cy="174.17" r="4.43"/>
    </g>
    <g style="fill:#22409a; stroke-width:0.47; stroke:#000000"
       id="10-Bahujan-Samaj-Party">
        <title>Bahujan Samaj Party</title>
        <circle cx="325.72" cy="174.17" r="4.43"/>
    </g>
    <g style="fill:#b2b2b2; stroke-width:0.47; stroke:#000000"
       id="11-Independent">
        <title>Independent</title>
        <circle cx="337.39" cy="174.17" r="4.43"/>
    </g>
    <g style="fill:#0093dd; stroke-width:0.47; stroke:#000000"
       id="12-Lok-Janshakti-Party">
        <title>Lok Janshakti Party</title>
        <circle cx="349.07" cy="174.17" r="4.43"/>
    </g>
</svg>

